<?xml version="1.0" encoding="UTF-8" standalone="no" ?>
<!DOCTYPE svg PUBLIC "-//W3C//DTD SVG 1.1//EN" "http://www.w3.org/Graphics/SVG/1.1/DTD/svg11.dtd">
<svg xmlns="http://www.w3.org/2000/svg" xmlns:xlink="http://www.w3.org/1999/xlink" version="1.1" width="458.9619921875001" height="133.02463999999992" xml:space="preserve">
<desc>Created with Fabric.js 1.6.0-rc.1</desc>
<defs></defs>
  <g transform="translate(255.03 77.51) scale(1.77 1.77)">
   <text font-family="Lobster 13" font-size="40" font-weight="normal" style="stroke: none; stroke-width: 1; stroke-dasharray: none; stroke-linecap: butt; stroke-linejoin: miter; stroke-miterlimit: 10; fill: #000000; fill-rule: nonzero; opacity: 1;" ><tspan x="-110.07" y="8.98" style="stroke: none; stroke-width: 0; stroke-dasharray: none; stroke-linecap: butt; stroke-linejoin: miter; stroke-miterlimit: 4; fill: #000000; fill-rule: ; opacity: 1;">S</tspan><tspan x="-87.28" y="8.98" style="stroke: none; stroke-width: 0; stroke-dasharray: none; stroke-linecap: butt; stroke-linejoin: miter; stroke-miterlimit: 4; fill: #000000; fill-rule: ; opacity: 1;">h</tspan><tspan x="-66.69" y="8.98" style="stroke: none; stroke-width: 0; stroke-dasharray: none; stroke-linecap: butt; stroke-linejoin: miter; stroke-miterlimit: 4; fill: #000000; fill-rule: ; opacity: 1;">a</tspan><tspan x="-46.57" y="8.98" style="stroke: none; stroke-width: 0; stroke-dasharray: none; stroke-linecap: butt; stroke-linejoin: miter; stroke-miterlimit: 4; fill: #000000; fill-rule: ; opacity: 1;">a</tspan><tspan x="-26.46" y="8.98" style="stroke: none; stroke-width: 0; stroke-dasharray: none; stroke-linecap: butt; stroke-linejoin: miter; stroke-miterlimit: 4; fill: #000000; fill-rule: ; opacity: 1;">n</tspan><tspan x="-6.34" y="8.98" style="stroke: none; stroke-width: 0; stroke-dasharray: none; stroke-linecap: butt; stroke-linejoin: miter; stroke-miterlimit: 4; fill: #000000; fill-rule: ; opacity: 1;"> </tspan><tspan x="2.33" y="8.98" style="stroke: none; stroke-width: 0; stroke-dasharray: none; stroke-linecap: butt; stroke-linejoin: miter; stroke-miterlimit: 4; fill: #000000; fill-rule: ; opacity: 1;">H</tspan><tspan x="27.57" y="8.98" style="stroke: none; stroke-width: 0; stroke-dasharray: none; stroke-linecap: butt; stroke-linejoin: miter; stroke-miterlimit: 4; fill: #000000; fill-rule: ; opacity: 1;">u</tspan><tspan x="48.35" y="8.98" style="stroke: none; stroke-width: 0; stroke-dasharray: none; stroke-linecap: butt; stroke-linejoin: miter; stroke-miterlimit: 4; fill: #000000; fill-rule: ; opacity: 1;">r</tspan><tspan x="64.05" y="8.98" style="stroke: none; stroke-width: 0; stroke-dasharray: none; stroke-linecap: butt; stroke-linejoin: miter; stroke-miterlimit: 4; fill: #000000; fill-rule: ; opacity: 1;">l</tspan><tspan x="75.48" y="8.98" style="stroke: none; stroke-width: 0; stroke-dasharray: none; stroke-linecap: butt; stroke-linejoin: miter; stroke-miterlimit: 4; fill: #000000; fill-rule: ; opacity: 1;">e</tspan><tspan x="89.68" y="8.98" style="stroke: none; stroke-width: 0; stroke-dasharray: none; stroke-linecap: butt; stroke-linejoin: miter; stroke-miterlimit: 4; fill: #000000; fill-rule: ; opacity: 1;">y</tspan></text>
 </g>
  <g transform="translate(173.36 83.84)">
   <text font-family="ADAMCG PRO" font-size="40" font-weight="normal" style="stroke: none; stroke-width: 1; stroke-dasharray: none; stroke-linecap: butt; stroke-linejoin: miter; stroke-miterlimit: 10; fill: #000000; fill-rule: nonzero; opacity: 1;" ><tspan x="0" y="8.98" fill="#000000"></tspan></text>
 </g>
<g style="stroke: none; stroke-width: 1; stroke-dasharray: none; stroke-linecap: butt; stroke-linejoin: miter; stroke-miterlimit: 10; fill: none; fill-rule: nonzero; opacity: 1;" transform="translate(10 10) scale(0.75 0.75)" >
  <path d="m 60.5 28.3 l 10 2 c 0 -2 0 -4 -1 -6 c -4 -13 -18 -19.99 -30 -15.99 c -1 1 -3 1 -4 1.99 l 6 -8.99 c -2 -0.999 -4 -0.999 -7 -0.999 c -13 0 -24 9.989 -24 23.989 c 0 1 0 2 1 3 l -7.03 -8 c -1 2 -3 4 -3 6 c -4 13 2 26 15.03 31 c 1 0 3 0 4 0 l -10 4 c 1 2 3 4 5 5 c 10 8 25 6 33 -5 c 1 -1 2 -2 2 -3 l 1 11 c 2 -1 4 -2 6 -4 c 11 -7 13 -22 5 -33 c 0 -1 -1 -2 -2 -3 z m -9 27 c -8 7 -20 8 -29 1 c -9 -5 -14.03 -16 -11 -27 c 3 -10 12 -18 23 -18 c 10 -1 20 6 24 16 c 4 10 1 21 -7 28 z" style="stroke: none; stroke-width: 1; stroke-dasharray: none; stroke-linecap: butt; stroke-linejoin: miter; stroke-miterlimit: 10; fill: #004e89; fill-rule: nonzero; opacity: 1;" transform="" stroke-linecap="round" />
  <path d="m 40.5 33.3 l 3 1 c 0 -1 0 -1 -1 -2 c -1 -2 -3 -4 -6 -3 c -1 0 -1 0 -1 0 l 1 -2 c 0 0 -1 0 -1 0 c -3 0 -5 2 -5 5 c 0 1 0 1 0 1 l -2 -2 c 0 1 0 1 -1 2 c 0 2 1 5 4 6 c 0 0 0 0 1 0 l -3 1 c 1 1 1 1 1 1 c 3 2 6 2 8 -1 c 0 0 0 0 0 0 l 0 2 c 1 0 1 0 2 -1 c 2 -1 3 -5 1 -7 c 0 0 0 -1 -1 -1 z m -2 6 c -1 2 -4 2 -6 0 c -2 -1 -3 -3 -2 -5 c 0 -3 2 -4 5 -4 c 2 -1 4 1 5 3 c 1 2 0 5 -2 6 z" style="stroke: none; stroke-width: 1; stroke-dasharray: none; stroke-linecap: butt; stroke-linejoin: miter; stroke-miterlimit: 10; fill: #ff6b35; fill-rule: nonzero; opacity: 1;" transform="" stroke-linecap="round" />
  <path d="m 21.5 31.3 l -5 1 c 0 -1 0 -2 0 -3 c 3 -7 10 -11 17 -9 c 0 1 1 1 2 1 l -3 -5 c 1 0 2 0 3 0 c 7 0 13 6 13 13 c 0 0 0 1 0 2 l 4 -5 c 0 1 1 2 1 4 c 3 6 -1 14 -8 16 c -1 0 -1 0 -2 1 l 6 2 c -1 1 -2 1 -3 2 c -6 4 -14 3 -18 -3 c -1 0 -1 -1 -1 -1 l -1 5 c -1 0 -2 0 -3 -1 c -6 -4 -7 -13 -3 -18 c 1 -1 1 -2 1 -2 z m 5 15 c 5 3 11 4 16 1 c 5 -4 7 -10 6 -15 c -2 -6 -7 -10 -13 -10 c -5 0 -11 3 -13 8 c -2 6 0 12 4 16 z" style="stroke: none; stroke-width: 1; stroke-dasharray: none; stroke-linecap: butt; stroke-linejoin: miter; stroke-miterlimit: 10; fill: #832232; fill-rule: nonzero; opacity: 1;" transform="" stroke-linecap="round" />
  <circle cx="196" cy="106" r="1.38" style="stroke: none; stroke-width: 1; stroke-dasharray: none; stroke-linecap: butt; stroke-linejoin: miter; stroke-miterlimit: 10; fill: #2b0079; fill-rule: nonzero; opacity: 1;" transform="  matrix(1 0 0 1 -151 -103) "/>
  <circle cx="201" cy="106" r="1.06" style="stroke: none; stroke-width: 1; stroke-dasharray: none; stroke-linecap: butt; stroke-linejoin: miter; stroke-miterlimit: 10; fill: #2b0079; fill-rule: nonzero; opacity: 1;" transform="  matrix(1 0 0 1 -151 -103) "/>
  <circle cx="206.00400000000002" cy="108.00399999999999" r="0.764" style="stroke: none; stroke-width: 1; stroke-dasharray: none; stroke-linecap: butt; stroke-linejoin: miter; stroke-miterlimit: 10; fill: #2b0079; fill-rule: nonzero; opacity: 1;" transform="  matrix(1 0 0 1 -151 -103) "/>
  <circle cx="219" cy="136" r="1.38" style="stroke: none; stroke-width: 1; stroke-dasharray: none; stroke-linecap: butt; stroke-linejoin: miter; stroke-miterlimit: 10; fill: #2b0079; fill-rule: nonzero; opacity: 1;" transform="  matrix(1 0 0 1 -151 -103) "/>
  <circle cx="221" cy="142" r="1.06" style="stroke: none; stroke-width: 1; stroke-dasharray: none; stroke-linecap: butt; stroke-linejoin: miter; stroke-miterlimit: 10; fill: #2b0079; fill-rule: nonzero; opacity: 1;" transform="  matrix(1 0 0 1 -151 -103) "/>
  <circle cx="221.00400000000002" cy="146.00400000000002" r="0.764" style="stroke: none; stroke-width: 1; stroke-dasharray: none; stroke-linecap: butt; stroke-linejoin: miter; stroke-miterlimit: 10; fill: #2b0079; fill-rule: nonzero; opacity: 1;" transform="  matrix(1 0 0 1 -151 -103) "/>
  <path d="m 198 170 c -1 0 -2 -1 -2 -1 c 1 -1 1 -2 2 -2 c 1 0 1 1 1 2 c 0 1 -1 1 -1 1 z" style="stroke: none; stroke-width: 1; stroke-dasharray: none; stroke-linecap: butt; stroke-linejoin: miter; stroke-miterlimit: 10; fill: #2b0079; fill-rule: nonzero; opacity: 1;" transform=" matrix(1 0 0 1 -151 -103) " stroke-linecap="round" />
  <circle cx="193" cy="172" r="1.06" style="stroke: none; stroke-width: 1; stroke-dasharray: none; stroke-linecap: butt; stroke-linejoin: miter; stroke-miterlimit: 10; fill: #2b0079; fill-rule: nonzero; opacity: 1;" transform="  matrix(1 0 0 1 -151 -103) "/>
  <circle cx="189.00400000000002" cy="174.00400000000002" r="0.764" style="stroke: none; stroke-width: 1; stroke-dasharray: none; stroke-linecap: butt; stroke-linejoin: miter; stroke-miterlimit: 10; fill: #2b0079; fill-rule: nonzero; opacity: 1;" transform="  matrix(1 0 0 1 -151 -103) "/>
  <circle cx="160" cy="159" r="1.38" style="stroke: none; stroke-width: 1; stroke-dasharray: none; stroke-linecap: butt; stroke-linejoin: miter; stroke-miterlimit: 10; fill: #2b0079; fill-rule: nonzero; opacity: 1;" transform="  matrix(1 0 0 1 -151 -103) "/>
  <circle cx="156" cy="156" r="1.06" style="stroke: none; stroke-width: 1; stroke-dasharray: none; stroke-linecap: butt; stroke-linejoin: miter; stroke-miterlimit: 10; fill: #2b0079; fill-rule: nonzero; opacity: 1;" transform="  matrix(1 0 0 1 -151 -103) "/>
  <circle cx="153.00400000000002" cy="152.00400000000002" r="0.764" style="stroke: none; stroke-width: 1; stroke-dasharray: none; stroke-linecap: butt; stroke-linejoin: miter; stroke-miterlimit: 10; fill: #2b0079; fill-rule: nonzero; opacity: 1;" transform="  matrix(1 0 0 1 -151 -103) "/>
  <path d="m 158 118 c 1 0 2 0 2 1 c 0 1 0 1 -1 2 c 0 0 -1 0 -1 -1 c -1 -1 -1 -1 0 -2 z" style="stroke: none; stroke-width: 1; stroke-dasharray: none; stroke-linecap: butt; stroke-linejoin: miter; stroke-miterlimit: 10; fill: #2b0079; fill-rule: nonzero; opacity: 1;" transform=" matrix(1 0 0 1 -151 -103) " stroke-linecap="round" />
  <circle cx="160" cy="114" r="1.06" style="stroke: none; stroke-width: 1; stroke-dasharray: none; stroke-linecap: butt; stroke-linejoin: miter; stroke-miterlimit: 10; fill: #2b0079; fill-rule: nonzero; opacity: 1;" transform="  matrix(1 0 0 1 -151 -103) "/>
  <circle cx="163.00400000000002" cy="110.00399999999999" r="0.764" style="stroke: none; stroke-width: 1; stroke-dasharray: none; stroke-linecap: butt; stroke-linejoin: miter; stroke-miterlimit: 10; fill: #2b0079; fill-rule: nonzero; opacity: 1;" transform="  matrix(1 0 0 1 -151 -103) "/>
  <circle cx="181.004" cy="121.004" r="0.774" style="stroke: none; stroke-width: 1; stroke-dasharray: none; stroke-linecap: butt; stroke-linejoin: miter; stroke-miterlimit: 10; fill: #2b0079; fill-rule: nonzero; opacity: 1;" transform="  matrix(1 0 0 1 -151 -103) "/>
  <circle cx="177.002" cy="121.002" r="0.592" style="stroke: none; stroke-width: 1; stroke-dasharray: none; stroke-linecap: butt; stroke-linejoin: miter; stroke-miterlimit: 10; fill: #2b0079; fill-rule: nonzero; opacity: 1;" transform="  matrix(1 0 0 1 -151 -103) "/>
  <circle cx="174.998" cy="120.99799999999999" r="0.428" style="stroke: none; stroke-width: 1; stroke-dasharray: none; stroke-linecap: butt; stroke-linejoin: miter; stroke-miterlimit: 10; fill: #2b0079; fill-rule: nonzero; opacity: 1;" transform="  matrix(1 0 0 1 -151 -103) "/>
  <circle cx="168.004" cy="137.004" r="0.774" style="stroke: none; stroke-width: 1; stroke-dasharray: none; stroke-linecap: butt; stroke-linejoin: miter; stroke-miterlimit: 10; fill: #2b0079; fill-rule: nonzero; opacity: 1;" transform="  matrix(1 0 0 1 -151 -103) "/>
  <circle cx="167.002" cy="140.002" r="0.592" style="stroke: none; stroke-width: 1; stroke-dasharray: none; stroke-linecap: butt; stroke-linejoin: miter; stroke-miterlimit: 10; fill: #2b0079; fill-rule: nonzero; opacity: 1;" transform="  matrix(1 0 0 1 -151 -103) "/>
  <circle cx="165.99699999999999" cy="142.99699999999999" r="0.427" style="stroke: none; stroke-width: 1; stroke-dasharray: none; stroke-linecap: butt; stroke-linejoin: miter; stroke-miterlimit: 10; fill: #2b0079; fill-rule: nonzero; opacity: 1;" transform="  matrix(1 0 0 1 -151 -103) "/>
  <circle cx="179.003" cy="155.003" r="0.773" style="stroke: none; stroke-width: 1; stroke-dasharray: none; stroke-linecap: butt; stroke-linejoin: miter; stroke-miterlimit: 10; fill: #2b0079; fill-rule: nonzero; opacity: 1;" transform="  matrix(1 0 0 1 -151 -103) "/>
  <circle cx="182.002" cy="157.002" r="0.592" style="stroke: none; stroke-width: 1; stroke-dasharray: none; stroke-linecap: butt; stroke-linejoin: miter; stroke-miterlimit: 10; fill: #2b0079; fill-rule: nonzero; opacity: 1;" transform="  matrix(1 0 0 1 -151 -103) "/>
  <circle cx="183.99699999999999" cy="157.99699999999999" r="0.427" style="stroke: none; stroke-width: 1; stroke-dasharray: none; stroke-linecap: butt; stroke-linejoin: miter; stroke-miterlimit: 10; fill: #2b0079; fill-rule: nonzero; opacity: 1;" transform="  matrix(1 0 0 1 -151 -103) "/>
  <circle cx="200.004" cy="150.004" r="0.774" style="stroke: none; stroke-width: 1; stroke-dasharray: none; stroke-linecap: butt; stroke-linejoin: miter; stroke-miterlimit: 10; fill: #2b0079; fill-rule: nonzero; opacity: 1;" transform="  matrix(1 0 0 1 -151 -103) "/>
  <circle cx="203.003" cy="148.003" r="0.593" style="stroke: none; stroke-width: 1; stroke-dasharray: none; stroke-linecap: butt; stroke-linejoin: miter; stroke-miterlimit: 10; fill: #2b0079; fill-rule: nonzero; opacity: 1;" transform="  matrix(1 0 0 1 -151 -103) "/>
  <circle cx="204.998" cy="145.998" r="0.428" style="stroke: none; stroke-width: 1; stroke-dasharray: none; stroke-linecap: butt; stroke-linejoin: miter; stroke-miterlimit: 10; fill: #2b0079; fill-rule: nonzero; opacity: 1;" transform="  matrix(1 0 0 1 -151 -103) "/>
  <circle cx="201.004" cy="128.004" r="0.774" style="stroke: none; stroke-width: 1; stroke-dasharray: none; stroke-linecap: butt; stroke-linejoin: miter; stroke-miterlimit: 10; fill: #2b0079; fill-rule: nonzero; opacity: 1;" transform="  matrix(1 0 0 1 -151 -103) "/>
  <circle cx="200.003" cy="125.003" r="0.593" style="stroke: none; stroke-width: 1; stroke-dasharray: none; stroke-linecap: butt; stroke-linejoin: miter; stroke-miterlimit: 10; fill: #2b0079; fill-rule: nonzero; opacity: 1;" transform="  matrix(1 0 0 1 -151 -103) "/>
  <circle cx="198.998" cy="122.99799999999999" r="0.428" style="stroke: none; stroke-width: 1; stroke-dasharray: none; stroke-linecap: butt; stroke-linejoin: miter; stroke-miterlimit: 10; fill: #2b0079; fill-rule: nonzero; opacity: 1;" transform="  matrix(1 0 0 1 -151 -103) "/>
</g>
</svg>